<mxfile host="Electron" modified="2023-09-06T02:27:12.758Z" agent="Mozilla/5.0 (Windows NT 10.0; Win64; x64) AppleWebKit/537.36 (KHTML, like Gecko) draw.io/21.6.8 Chrome/114.0.5735.289 Electron/25.5.0 Safari/537.36" etag="kq9P2QvAUi-emjMAMB31" version="21.6.8" type="device">
  <diagram name="Page-1" id="AwdsqGV873l4rnukHdnv">
    <mxGraphModel dx="915" dy="1362" grid="1" gridSize="10" guides="1" tooltips="1" connect="1" arrows="1" fold="1" page="1" pageScale="1" pageWidth="827" pageHeight="1169" background="#ffffff" math="0" shadow="1">
      <root>
        <mxCell id="0" />
        <mxCell id="1" parent="0" />
        <mxCell id="9bqs0c-ypHs1ppGKKPmU-10" style="orthogonalLoop=1;jettySize=auto;html=1;entryX=0.5;entryY=1;entryDx=0;entryDy=0;startArrow=classic;startFill=1;rounded=0;jumpStyle=none;" edge="1" parent="1" source="9bqs0c-ypHs1ppGKKPmU-1" target="9bqs0c-ypHs1ppGKKPmU-2">
          <mxGeometry relative="1" as="geometry" />
        </mxCell>
        <mxCell id="9bqs0c-ypHs1ppGKKPmU-1" value="Usuário" style="shape=umlActor;verticalLabelPosition=bottom;verticalAlign=top;html=1;outlineConnect=0;fontSize=18;" vertex="1" parent="1">
          <mxGeometry x="228" y="1070" width="30" height="60" as="geometry" />
        </mxCell>
        <mxCell id="9bqs0c-ypHs1ppGKKPmU-21" style="rounded=0;orthogonalLoop=1;jettySize=auto;html=1;exitX=0.75;exitY=0;exitDx=0;exitDy=0;entryX=0;entryY=1;entryDx=0;entryDy=0;" edge="1" parent="1" source="9bqs0c-ypHs1ppGKKPmU-2" target="9bqs0c-ypHs1ppGKKPmU-8">
          <mxGeometry relative="1" as="geometry" />
        </mxCell>
        <mxCell id="9bqs0c-ypHs1ppGKKPmU-2" value="Servidor Web" style="rounded=1;whiteSpace=wrap;html=1;fontSize=18;" vertex="1" parent="1">
          <mxGeometry x="178" y="800" width="130" height="60" as="geometry" />
        </mxCell>
        <mxCell id="9bqs0c-ypHs1ppGKKPmU-11" style="edgeStyle=orthogonalEdgeStyle;rounded=0;orthogonalLoop=1;jettySize=auto;html=1;startArrow=none;startFill=0;strokeWidth=1;" edge="1" parent="1" target="9bqs0c-ypHs1ppGKKPmU-2">
          <mxGeometry relative="1" as="geometry">
            <mxPoint x="514" y="830" as="sourcePoint" />
          </mxGeometry>
        </mxCell>
        <mxCell id="9bqs0c-ypHs1ppGKKPmU-13" value="Vídeos mais populares" style="edgeLabel;html=1;align=center;verticalAlign=middle;resizable=0;points=[];fontSize=15;" vertex="1" connectable="0" parent="9bqs0c-ypHs1ppGKKPmU-11">
          <mxGeometry x="-0.0985" y="2" relative="1" as="geometry">
            <mxPoint x="-13" y="8" as="offset" />
          </mxGeometry>
        </mxCell>
        <mxCell id="9bqs0c-ypHs1ppGKKPmU-3" value="CDN" style="rounded=1;whiteSpace=wrap;html=1;fontSize=18;" vertex="1" parent="1">
          <mxGeometry x="514" y="800" width="120" height="60" as="geometry" />
        </mxCell>
        <mxCell id="9bqs0c-ypHs1ppGKKPmU-18" style="edgeStyle=orthogonalEdgeStyle;rounded=0;orthogonalLoop=1;jettySize=auto;html=1;entryX=0.5;entryY=0;entryDx=0;entryDy=0;startArrow=classic;startFill=1;" edge="1" parent="1" source="9bqs0c-ypHs1ppGKKPmU-5" target="9bqs0c-ypHs1ppGKKPmU-7">
          <mxGeometry relative="1" as="geometry" />
        </mxCell>
        <mxCell id="9bqs0c-ypHs1ppGKKPmU-5" value="Servidor de Aplicação&lt;br&gt;(API)" style="rounded=1;whiteSpace=wrap;html=1;fontSize=18;" vertex="1" parent="1">
          <mxGeometry x="178" y="290" width="130" height="70" as="geometry" />
        </mxCell>
        <mxCell id="9bqs0c-ypHs1ppGKKPmU-12" style="rounded=0;orthogonalLoop=1;jettySize=auto;html=1;exitX=0;exitY=1;exitDx=0;exitDy=0;entryX=1;entryY=0;entryDx=0;entryDy=0;startArrow=classic;startFill=1;" edge="1" parent="1" source="9bqs0c-ypHs1ppGKKPmU-6" target="9bqs0c-ypHs1ppGKKPmU-2">
          <mxGeometry relative="1" as="geometry" />
        </mxCell>
        <mxCell id="9bqs0c-ypHs1ppGKKPmU-15" style="edgeStyle=orthogonalEdgeStyle;rounded=0;orthogonalLoop=1;jettySize=auto;html=1;" edge="1" parent="1" source="9bqs0c-ypHs1ppGKKPmU-6" target="9bqs0c-ypHs1ppGKKPmU-3">
          <mxGeometry relative="1" as="geometry" />
        </mxCell>
        <mxCell id="9bqs0c-ypHs1ppGKKPmU-6" value="Armazenamento de Vídeo" style="rounded=1;whiteSpace=wrap;html=1;fontSize=18;" vertex="1" parent="1">
          <mxGeometry x="499" y="550" width="150" height="60" as="geometry" />
        </mxCell>
        <mxCell id="9bqs0c-ypHs1ppGKKPmU-17" style="edgeStyle=orthogonalEdgeStyle;rounded=0;orthogonalLoop=1;jettySize=auto;html=1;startArrow=classic;startFill=1;" edge="1" parent="1" source="9bqs0c-ypHs1ppGKKPmU-7" target="9bqs0c-ypHs1ppGKKPmU-2">
          <mxGeometry relative="1" as="geometry" />
        </mxCell>
        <mxCell id="9bqs0c-ypHs1ppGKKPmU-7" value="Balanceador de &lt;br&gt;carga" style="rounded=1;whiteSpace=wrap;html=1;fontSize=18;" vertex="1" parent="1">
          <mxGeometry x="178" y="550" width="130" height="60" as="geometry" />
        </mxCell>
        <mxCell id="9bqs0c-ypHs1ppGKKPmU-16" style="edgeStyle=orthogonalEdgeStyle;rounded=0;orthogonalLoop=1;jettySize=auto;html=1;" edge="1" parent="1" source="9bqs0c-ypHs1ppGKKPmU-8" target="9bqs0c-ypHs1ppGKKPmU-6">
          <mxGeometry relative="1" as="geometry" />
        </mxCell>
        <mxCell id="9bqs0c-ypHs1ppGKKPmU-8" value="Servidor de Transcodificação" style="rounded=1;whiteSpace=wrap;html=1;fontSize=18;" vertex="1" parent="1">
          <mxGeometry x="499" y="295" width="150" height="60" as="geometry" />
        </mxCell>
        <mxCell id="9bqs0c-ypHs1ppGKKPmU-19" style="rounded=0;orthogonalLoop=1;jettySize=auto;html=1;entryX=0.5;entryY=0;entryDx=0;entryDy=0;startArrow=classic;startFill=1;exitX=0.75;exitY=1;exitDx=0;exitDy=0;" edge="1" parent="1" source="9bqs0c-ypHs1ppGKKPmU-9" target="9bqs0c-ypHs1ppGKKPmU-8">
          <mxGeometry relative="1" as="geometry" />
        </mxCell>
        <mxCell id="9bqs0c-ypHs1ppGKKPmU-20" style="rounded=0;orthogonalLoop=1;jettySize=auto;html=1;exitX=0.25;exitY=1;exitDx=0;exitDy=0;entryX=0.5;entryY=0;entryDx=0;entryDy=0;startArrow=classic;startFill=1;" edge="1" parent="1" source="9bqs0c-ypHs1ppGKKPmU-9" target="9bqs0c-ypHs1ppGKKPmU-5">
          <mxGeometry relative="1" as="geometry" />
        </mxCell>
        <mxCell id="9bqs0c-ypHs1ppGKKPmU-9" value="Armazenamento de Metadados" style="rounded=1;whiteSpace=wrap;html=1;fontSize=18;" vertex="1" parent="1">
          <mxGeometry x="339" y="30" width="150" height="60" as="geometry" />
        </mxCell>
      </root>
    </mxGraphModel>
  </diagram>
</mxfile>
